<?xml version="1.0" encoding="UTF-8" standalone="no"?>
<svg
   xmlns:dc="http://purl.org/dc/elements/1.1/"
   xmlns:cc="http://creativecommons.org/ns#"
   xmlns:rdf="http://www.w3.org/1999/02/22-rdf-syntax-ns#"
   xmlns:svg="http://www.w3.org/2000/svg"
   xmlns="http://www.w3.org/2000/svg"
   xmlns:sodipodi="http://sodipodi.sourceforge.net/DTD/sodipodi-0.dtd"
   xmlns:inkscape="http://www.inkscape.org/namespaces/inkscape"
   version="1.1"
   x="0px"
   y="0px"
   viewBox="0 0 72.567 80.267"
   width="2.56cm"
   height="2.83cm"
   xml:space="preserve"
   id="svg132"
   sodipodi:docname="svg.pcb.WeMos-D1-mini-1-DC-power-Shield_pcb.svg"
   inkscape:version="0.92.2 5c3e80d, 2017-08-06"><metadata
     id="metadata138"><rdf:RDF><cc:Work
         rdf:about=""><dc:format>image/svg+xml</dc:format><dc:type
           rdf:resource="http://purl.org/dc/dcmitype/StillImage" /></cc:Work></rdf:RDF></metadata><defs
     id="defs136" /><sodipodi:namedview
     pagecolor="#ffffff"
     bordercolor="#666666"
     borderopacity="1"
     objecttolerance="10"
     gridtolerance="10"
     guidetolerance="10"
     inkscape:pageopacity="0"
     inkscape:pageshadow="2"
     inkscape:window-width="1914"
     inkscape:window-height="906"
     id="namedview134"
     showgrid="false"
     inkscape:zoom="12.481393"
     inkscape:cx="59.927827"
     inkscape:cy="32.789634"
     inkscape:window-x="0"
     inkscape:window-y="0"
     inkscape:window-maximized="0"
     inkscape:current-layer="g129" /><g
     id="silkscreen"><path
       d="M71.539,0.5C71.86,0.5 72.037,0.677 72.037,0.998L72.037,78.164C72.037,78.989 71.366,79.661 70.54,79.661L7.651,79.661C6.825,79.661 6.153,78.989 6.153,78.164L6.153,60.994C6.153,60.588 5.933,60.225 5.563,60.041L0.587,57.752C0.566,57.741 0.564,57.712 0.564,57.699L0.564,0.997C0.563,0.677 0.74,0.5 1.06,0.5L71.539,0.5M71.539,0L1.06,0C0.461,0 0.063,0.4 0.063,0.997L0.063,57.699C0.063,57.898 0.163,58.098 0.363,58.198L5.354,60.495C5.554,60.595 5.654,60.795 5.654,60.995L5.654,78.165C5.654,79.262 6.551,80.162 7.651,80.162L70.54,80.162C71.637,80.162 72.537,79.264 72.537,78.165L72.537,0.997C72.537,0.4 72.137,0 71.539,0Z"
       style="fill-rule:nonzero;"
       id="path2" /><g
       id="g12"><g
         transform="matrix(1,0,0,1,36.2835,26.9843)"
         id="g6"><text
           x="-15.08px"
           y="0px"
           style="font-family:'LucidaGrande', 'Lucida Grande', sans-serif;font-weight:500;font-size:3.998px;"
           id="text4">WeMos D1 mini</text>
</g><g
         transform="matrix(1,0,0,1,36.2835,33.9803)"
         id="g10"><text
           x="-15.794px"
           y="0px"
           style="font-family:'LucidaGrande', 'Lucida Grande', sans-serif;font-weight:500;font-size:3.998px;"
           id="text8">DC Power Shield</text>
</g></g><g
       transform="matrix(1,0,0,1,0.283336,0)"
       id="g102"><g
         id="g96"><g
           transform="matrix(1,0,0,1,8.49507,0.299826)"
           id="g44"><path
             d="M0.021,4.597L0.021,2.399M0.021,2.399L1.185,2.399M1.185,2.399L1.509,2.722M1.508,2.722L1.508,3.498M1.508,3.498L1.185,3.886M1.185,3.886L0.021,3.886M0.797,3.886L1.508,4.597M3.837,2.722L3.448,2.399M3.448,2.399L2.672,2.399M2.672,2.399L2.285,2.722M2.285,2.722L2.285,3.11M2.285,3.11L2.672,3.498M2.672,3.498L3.448,3.498M3.448,3.498L3.836,3.886M3.837,3.886L3.837,4.21M3.837,4.21L3.448,4.597M3.448,4.597L2.672,4.597M2.672,4.597L2.285,4.21M5.324,4.597L5.324,2.399M4.612,2.399L6.099,2.399"
             style="fill:none;stroke:black;stroke-width:0.4px;"
             id="path14" /><g
             transform="matrix(1,0,0,1,0,7.19583)"
             id="g18"><path
               d="M0.021,4.597L0.021,3.11M0.021,3.11L0.797,2.399M0.797,2.399L1.572,3.11M1.573,3.11L1.573,4.597M0.021,3.498L1.573,3.498M2.349,4.21L2.349,2.722M2.349,2.722L2.737,2.399M2.737,2.399L3.449,2.399M3.448,2.399L3.836,2.722M3.837,2.722L3.837,4.21M3.837,4.21L3.448,4.597M3.448,4.597L2.737,4.597M2.737,4.597L2.349,4.21M2.349,4.21L3.836,2.722"
               style="fill:none;stroke:black;stroke-width:0.4px;"
               id="path16" /></g><g
             transform="matrix(1,0,0,1,0,14.3917)"
             id="g22"><path
               d="M0.021,2.399L0.021,4.597M0.021,4.597L1.185,4.597M1.185,4.597L1.573,4.21M1.573,4.21L1.573,2.722M1.573,2.722L1.185,2.399M1.185,2.399L0.021,2.399M2.349,4.21L2.349,2.722M2.349,2.722L2.737,2.399M2.737,2.399L3.449,2.399M3.448,2.399L3.836,2.722M3.837,2.722L3.837,4.21M3.837,4.21L3.448,4.597M3.448,4.597L2.737,4.597M2.737,4.597L2.349,4.21M2.349,4.21L3.836,2.722"
               style="fill:none;stroke:black;stroke-width:0.4px;"
               id="path20" /></g><g
             transform="matrix(1,0,0,1,0,21.5875)"
             id="g26"><path
               d="M0.021,2.399L0.021,4.597M0.021,4.597L1.185,4.597M1.185,4.597L1.573,4.21M1.573,4.21L1.573,2.722M1.573,2.722L1.185,2.399M1.185,2.399L0.021,2.399M3.837,2.399L2.349,2.399M2.349,2.399L2.349,3.498M2.349,3.498L3.06,3.11M3.06,3.11L3.448,3.11M3.448,3.11L3.837,3.498M3.837,3.498L3.837,4.21M3.837,4.21L3.448,4.597M3.448,4.597L2.672,4.597M2.672,4.597L2.349,4.21"
               style="fill:none;stroke:black;stroke-width:0.4px;"
               id="path24" /></g><g
             transform="matrix(1,0,0,1,0,28.7833)"
             id="g30"><path
               d="M0.021,2.399L0.021,4.597M0.021,4.597L1.185,4.597M1.185,4.597L1.573,4.21M1.573,4.21L1.573,2.722M1.573,2.722L1.185,2.399M1.185,2.399L0.021,2.399M3.837,2.399L3.06,2.722M3.06,2.722L2.349,3.498M2.349,3.498L2.349,4.21M2.672,4.597L2.349,4.21M2.672,4.597L3.448,4.597M3.448,4.597L3.836,4.21M3.837,4.21L3.837,3.886M3.837,3.886L3.448,3.498M3.448,3.498L2.349,3.498"
               style="fill:none;stroke:black;stroke-width:0.4px;"
               id="path28" /></g><g
             transform="matrix(1,0,0,1,0,35.9791)"
             id="g34"><path
               d="M0.021,2.399L0.021,4.597M0.021,4.597L1.185,4.597M1.185,4.597L1.573,4.21M1.573,4.21L1.573,2.722M1.573,2.722L1.185,2.399M1.185,2.399L0.021,2.399M2.349,2.399L3.836,2.399M3.837,2.399L3.837,2.722M3.837,2.722L2.349,4.21M2.349,4.21L2.349,4.597"
               style="fill:none;stroke:black;stroke-width:0.4px;"
               id="path32" /></g><g
             transform="matrix(1,0,0,1,0,43.175)"
             id="g38"><path
               d="M0.021,2.399L0.021,4.597M0.021,4.597L1.185,4.597M1.185,4.597L1.509,4.21M1.508,4.21L1.508,2.722M1.508,2.722L1.185,2.399M1.185,2.399L0.021,2.399M2.349,2.722L2.672,2.399M2.672,2.399L3.448,2.399M3.448,2.399L3.836,2.722M3.837,2.722L3.837,3.11M3.837,3.11L3.448,3.498M3.448,3.498L3.836,3.886M3.837,3.886L3.837,4.21M3.837,4.21L3.448,4.597M3.448,4.597L2.672,4.597M2.672,4.597L2.349,4.21M2.349,4.21L2.349,3.886M2.349,3.886L2.672,3.498M2.672,3.498L2.349,3.11M2.349,3.11L2.349,2.722M2.672,3.498L3.448,3.498"
               style="fill:none;stroke:black;stroke-width:0.4px;"
               id="path36" /></g><g
             transform="matrix(1,0,0,1,0,50.3708)"
             id="g42"><path
               d="M0.021,2.722L0.409,2.399M0.409,2.399L1.184,2.399M1.185,2.399L1.509,2.722M1.508,2.722L1.508,3.11M1.508,3.11L1.185,3.498M1.185,3.498L0.797,3.498M1.185,3.498L1.509,3.886M1.508,3.886L1.508,4.21M1.508,4.21L1.185,4.597M1.185,4.597L0.409,4.597M0.409,4.597L0.021,4.21M2.349,2.399L2.349,3.886M2.349,3.886L3.06,4.597M3.06,4.597L3.836,3.886M3.837,3.886L3.837,2.399M4.612,2.722L5,2.399M5,2.399L5.712,2.399M5.712,2.399L6.099,2.722M6.099,2.722L6.099,3.11M6.099,3.11L5.712,3.498M5.712,3.498L5.389,3.498M5.712,3.498L6.099,3.886M6.099,3.886L6.099,4.21M6.099,4.21L5.712,4.597M5.712,4.597L5,4.597M4.612,4.21L5,4.597"
               style="fill:none;stroke:black;stroke-width:0.4px;"
               id="path40" /></g></g><g
           transform="matrix(1,0,0,1,56.6671,0.299826)"
           id="g94"><path
             d="M3.978,4.597L3.978,2.399M3.266,2.399L4.753,2.399M7.017,4.597L5.53,2.399M7.017,2.399L5.53,4.597"
             style="fill:none;stroke:black;stroke-width:0.4px;"
             id="path46" /><g
             transform="matrix(1,0,0,1,0,7.19583)"
             id="g50"><path
               d="M3.266,4.597L3.266,2.399M3.266,2.399L4.365,2.399M4.365,2.399L4.753,2.722M4.753,2.722L4.753,3.498M4.753,3.498L4.365,3.886M4.365,3.886L3.266,3.886M3.978,3.886L4.753,4.597M7.017,4.597L5.53,2.399M7.017,2.399L5.53,4.597"
               style="fill:none;stroke:black;stroke-width:0.4px;"
               id="path48" /></g><g
             transform="matrix(1,0,0,1,0,14.3917)"
             id="g54"><path
               d="M3.266,2.399L3.266,4.597M3.266,4.597L4.365,4.597M4.365,4.597L4.753,4.21M4.753,4.21L4.753,2.722M4.753,2.722L4.365,2.399M4.365,2.399L3.266,2.399M5.53,3.11L6.241,2.399M6.241,2.399L6.241,4.597M5.53,4.597L7.017,4.597"
               style="fill:none;stroke:black;stroke-width:0.4px;"
               id="path52" /></g><g
             transform="matrix(1,0,0,1,0.306864,0.113062)"
             id="g68"><g
               transform="matrix(1,0,0,1,1.28424,60.0051)"
               id="g58"><path
                 d="M5.53,3.11L6.241,2.399M6.241,2.399L6.241,4.597M5.53,4.597L7.017,4.597"
                 style="fill:none;stroke:black;stroke-width:0.4px;"
                 id="path56" /></g><g
               transform="matrix(1,0,0,1,3.37462,60.019)"
               id="g62"><path
                 d="M7.017,4.597L5.53,4.597M5.53,4.597L7.017,3.11M7.017,3.11L7.017,2.722M7.017,2.722L6.629,2.399M6.629,2.399L5.918,2.399M5.918,2.399L5.53,2.722"
                 style="fill:none;stroke:black;stroke-width:0.4px;"
                 id="path60" /></g><g
               transform="matrix(1,0,0,1,5.53544,60.0751)"
               id="g66"><path
                 d="M5.53,2.399L5.53,3.886M5.53,3.886L6.241,4.597M6.241,4.597L7.017,3.886M7.017,3.886L7.017,2.399"
                 style="fill:none;stroke:black;stroke-width:0.4px;"
                 id="path64" /></g></g><g
             transform="matrix(1,0,0,1,0,21.5875)"
             id="g72"><path
               d="M3.266,2.399L3.266,4.597M3.266,4.597L4.365,4.597M4.365,4.597L4.753,4.21M4.753,4.21L4.753,2.722M4.753,2.722L4.365,2.399M4.365,2.399L3.266,2.399M7.017,4.597L5.53,4.597M5.53,4.597L7.017,3.11M7.017,3.11L7.017,2.722M7.017,2.722L6.629,2.399M6.629,2.399L5.918,2.399M5.918,2.399L5.53,2.722"
               style="fill:none;stroke:black;stroke-width:0.4px;"
               id="path70" /></g><g
             transform="matrix(1,0,0,1,0,28.7833)"
             id="g76"><path
               d="M3.201,2.399L3.201,4.597M3.201,4.597L4.365,4.597M4.365,4.597L4.753,4.21M4.753,4.21L4.753,2.722M4.753,2.722L4.365,2.399M4.365,2.399L3.201,2.399M5.53,2.722L5.918,2.399M5.918,2.399L6.629,2.399M6.629,2.399L7.017,2.722M7.017,2.722L7.017,3.11M7.017,3.11L6.629,3.498M6.629,3.498L6.241,3.498M6.629,3.498L7.017,3.886M7.017,3.886L7.017,4.21M7.017,4.21L6.629,4.597M6.629,4.597L5.918,4.597M5.918,4.597L5.53,4.21"
               style="fill:none;stroke:black;stroke-width:0.4px;"
               id="path74" /></g><g
             transform="matrix(1,0,0,1,0,35.9791)"
             id="g80"><path
               d="M3.201,2.399L3.201,4.597M3.201,4.597L4.365,4.597M4.365,4.597L4.753,4.21M4.753,4.21L4.753,2.722M4.753,2.722L4.365,2.399M4.365,2.399L3.201,2.399M6.629,4.597L6.629,2.399M6.629,2.399L5.53,3.498M5.53,3.498L7.017,3.498"
               style="fill:none;stroke:black;stroke-width:0.4px;"
               id="path78" /></g><g
             transform="matrix(1,0,0,1,0,43.175)"
             id="g84"><path
               d="M2.038,2.399L2.426,2.722M2.038,2.399L1.326,2.399M0.938,2.722L1.326,2.399M0.938,2.722L0.938,4.21M1.326,4.597L0.938,4.21M1.326,4.597L2.038,4.597M2.038,4.597L2.426,4.21M2.426,4.21L2.426,3.498M2.426,3.498L1.714,3.498M3.201,4.597L3.201,2.399M3.201,2.399L4.753,4.597M4.753,4.597L4.753,2.399M5.53,2.399L5.53,4.597M5.53,4.597L6.629,4.597M6.629,4.597L7.017,4.21M7.017,4.21L7.017,2.722M7.017,2.722L6.629,2.399M6.629,2.399L5.53,2.399"
               style="fill:none;stroke:black;stroke-width:0.4px;"
               id="path82" /></g><g
             transform="matrix(1,0,0,1,-4.05405,60.1338)"
             id="g88"><path
               d="M2.038,2.399L2.426,2.722M2.038,2.399L1.326,2.399M0.938,2.722L1.326,2.399M0.938,2.722L0.938,4.21M1.326,4.597L0.938,4.21M1.326,4.597L2.038,4.597M2.038,4.597L2.426,4.21M2.426,4.21L2.426,3.498M2.426,3.498L1.714,3.498M3.201,4.597L3.201,2.399M3.201,2.399L4.753,4.597M4.753,4.597L4.753,2.399M5.53,2.399L5.53,4.597M5.53,4.597L6.629,4.597M6.629,4.597L7.017,4.21M7.017,4.21L7.017,2.722M7.017,2.722L6.629,2.399M6.629,2.399L5.53,2.399"
               style="fill:none;stroke:black;stroke-width:0.4px;"
               id="path86" /></g><g
             transform="matrix(1,0,0,1,0,50.3708)"
             id="g92"><path
               d="M4.753,2.399L3.201,2.399M3.201,2.399L3.201,3.498M3.201,3.498L3.977,3.11M3.978,3.11L4.365,3.11M4.365,3.11L4.753,3.498M4.753,3.498L4.753,4.21M4.753,4.21L4.365,4.597M4.365,4.597L3.59,4.597M3.59,4.597L3.201,4.21M5.53,2.399L5.53,3.886M5.53,3.886L6.241,4.597M6.241,4.597L7.017,3.886M7.017,3.886L7.017,2.399"
               style="fill:none;stroke:black;stroke-width:0.4px;"
               id="path90" /></g></g></g><g
         transform="matrix(1,0,0,1,67.7607,75.9559)"
         id="g100"><circle
           cx="0.821"
           cy="0.8"
           r="1.599"
           id="circle98" /></g></g></g><g
     id="copper0"
     transform="translate(0.283336)"><g
       transform="translate(0,0.321813)"
       id="g113"
       sodipodi:insensitive="true"><circle
         id="connector0pad"
         cx="3.619"
         cy="3.598"
         r="2.049"
         style="fill:none;stroke:#f7bd13;stroke-width:1.5px;stroke-linecap:butt;stroke-linejoin:miter;stroke-miterlimit:4" /><circle
         id="connector1pad"
         cx="3.619"
         cy="10.794"
         r="2.049"
         style="fill:none;stroke:#f7bd13;stroke-width:1.5px;stroke-linecap:butt;stroke-linejoin:miter;stroke-miterlimit:4" /><circle
         id="connector2pad"
         cx="3.619"
         cy="17.99"
         r="2.049"
         style="fill:none;stroke:#f7bd13;stroke-width:1.5px;stroke-linecap:butt;stroke-linejoin:miter;stroke-miterlimit:4" /><circle
         id="connector3pad"
         cx="3.619"
         cy="25.184999"
         r="2.049"
         style="fill:none;stroke:#f7bd13;stroke-width:1.5px;stroke-linecap:butt;stroke-linejoin:miter;stroke-miterlimit:4" /><circle
         id="connector4pad"
         cx="3.619"
         cy="32.381001"
         r="2.049"
         style="fill:none;stroke:#f7bd13;stroke-width:1.5px;stroke-linecap:butt;stroke-linejoin:miter;stroke-miterlimit:4" /><circle
         id="connector5pad"
         cx="3.619"
         cy="39.577"
         r="2.049"
         style="fill:none;stroke:#f7bd13;stroke-width:1.5px;stroke-linecap:butt;stroke-linejoin:miter;stroke-miterlimit:4" /><circle
         id="connector6pad"
         cx="3.619"
         cy="46.772999"
         r="2.049"
         style="fill:none;stroke:#f7bd13;stroke-width:1.5px;stroke-linecap:butt;stroke-linejoin:miter;stroke-miterlimit:4" /><circle
         id="connector7pad"
         cx="3.6189971"
         cy="52.948662"
         r="2.049"
         style="fill:none;stroke:#f7bd13;stroke-width:1.5px;stroke-linecap:butt;stroke-linejoin:miter;stroke-miterlimit:4" /></g><g
       transform="translate(64.7624,0.321813)"
       id="g129"><circle
         id="connector8pad"
         cx="3.619"
         cy="53.969002"
         r="2.049"
         style="fill:none;stroke:#f7bd13;stroke-width:1.5px;stroke-linecap:butt;stroke-linejoin:miter;stroke-miterlimit:4" /><circle
         cx="1.9184288"
         cy="68.763977"
         r="2.049"
         style="display:inline;fill:none;stroke:#f7bd13;stroke-width:1.5px;stroke-linecap:butt;stroke-linejoin:miter;stroke-miterlimit:4"
         id="connector18pad"
         inkscape:label="connector18pad" /><circle
         cx="-8.2829313"
         cy="68.463356"
         r="2.049"
         style="fill:none;stroke:#f7bd13;stroke-width:1.5px;stroke-linecap:butt;stroke-linejoin:miter;stroke-miterlimit:4"
         id="circle116"
         inkscape:label="connector17pad" /><circle
         id="connector9pad"
         cx="3.619"
         cy="46.772999"
         r="2.049"
         style="display:inline;fill:none;stroke:#f7bd13;stroke-width:1.5px;stroke-linecap:butt;stroke-linejoin:miter;stroke-miterlimit:4" /><circle
         id="connector10pad"
         cx="3.619"
         cy="39.577"
         r="2.049"
         style="display:inline;fill:none;stroke:#f7bd13;stroke-width:1.5px;stroke-linecap:butt;stroke-linejoin:miter;stroke-miterlimit:4" /><circle
         id="connector11pad"
         cx="3.619"
         cy="32.381001"
         r="2.049"
         style="fill:none;stroke:#f7bd13;stroke-width:1.5px;stroke-linecap:butt;stroke-linejoin:miter;stroke-miterlimit:4" /><circle
         id="connector12pad"
         cx="3.619"
         cy="25.184999"
         r="2.049"
         style="fill:none;stroke:#f7bd13;stroke-width:1.5px;stroke-linecap:butt;stroke-linejoin:miter;stroke-miterlimit:4" /><circle
         id="connector13pad"
         cx="3.619"
         cy="17.99"
         r="2.049"
         style="fill:none;stroke:#f7bd13;stroke-width:1.5px;stroke-linecap:butt;stroke-linejoin:miter;stroke-miterlimit:4" /><circle
         id="connector14pad"
         cx="3.619"
         cy="10.794"
         r="2.049"
         style="fill:none;stroke:#f7bd13;stroke-width:1.5px;stroke-linecap:butt;stroke-linejoin:miter;stroke-miterlimit:4" /><circle
         id="connector15pad"
         cx="3.619"
         cy="3.598"
         r="2.049"
         style="fill:none;stroke:#f7bd13;stroke-width:1.5px;stroke-linecap:butt;stroke-linejoin:miter;stroke-miterlimit:4" /></g></g></svg>