<?xml version="1.0" encoding="UTF-8" standalone="no"?>
<svg
   xmlns:dc="http://purl.org/dc/elements/1.1/"
   xmlns:cc="http://creativecommons.org/ns#"
   xmlns:rdf="http://www.w3.org/1999/02/22-rdf-syntax-ns#"
   xmlns:svg="http://www.w3.org/2000/svg"
   xmlns="http://www.w3.org/2000/svg"
   xmlns:sodipodi="http://sodipodi.sourceforge.net/DTD/sodipodi-0.dtd"
   xmlns:inkscape="http://www.inkscape.org/namespaces/inkscape"
   version="1.1"
   x="0px"
   y="0px"
   viewBox="0 0 72.567 80.267"
   width="2.56cm"
   height="2.83cm"
   xml:space="preserve"
   id="svg2536"
   sodipodi:docname="svg.breadboard.WeMos-D1-mini-1-DC-power-Shield_breadboard.svg"><metadata
     id="metadata2542"><rdf:RDF><cc:Work
         rdf:about=""><dc:format>image/svg+xml</dc:format><dc:type
           rdf:resource="http://purl.org/dc/dcmitype/StillImage" /></cc:Work></rdf:RDF></metadata><defs
     id="defs2540" /><sodipodi:namedview
     pagecolor="#ffffff"
     bordercolor="#666666"
     borderopacity="1"
     objecttolerance="10"
     gridtolerance="10"
     guidetolerance="10"
     inkscape:pageopacity="0"
     inkscape:pageshadow="2"
     inkscape:window-width="640"
     inkscape:window-height="480"
     id="namedview2538"
     showgrid="false" /><g
     id="breadboard"><path
       d="M70.58,80.253L7.617,80.253C6.517,80.253 5.618,79.354 5.618,78.255L5.618,61.065C5.618,60.865 5.518,60.665 5.318,60.565L0.321,58.266C0.121,58.166 0.021,57.966 0.021,57.766L0.021,0.999C0.021,0.4 0.421,0 1.02,0L71.579,0C72.179,0 72.579,0.4 72.579,0.999L72.579,78.255C72.579,79.354 71.679,80.253 70.58,80.253ZM56.892,68.371C57.616,68.371 58.205,68.959 58.205,69.684C58.205,70.408 57.616,70.997 56.892,70.997C56.167,70.997 55.579,70.408 55.579,69.684C55.579,68.959 56.167,68.371 56.892,68.371ZM66.942,68.422C67.645,68.422 68.216,68.993 68.216,69.696C68.216,70.399 67.645,70.969 66.942,70.969C66.24,70.969 65.669,70.399 65.669,69.696C65.669,68.993 66.24,68.422 66.942,68.422ZM68.681,52.969C69.381,52.969 69.98,53.569 69.98,54.269C69.98,54.968 69.381,55.568 68.681,55.568C67.982,55.568 67.382,54.968 67.382,54.269C67.382,53.569 67.982,52.969 68.681,52.969ZM3.919,52.969C4.618,52.969 5.218,53.569 5.218,54.269C5.218,54.968 4.618,55.568 3.919,55.568C3.219,55.568 2.619,54.968 2.619,54.269C2.619,53.569 3.219,52.969 3.919,52.969ZM68.681,45.773C69.381,45.773 69.98,46.373 69.98,47.073C69.98,47.772 69.381,48.372 68.681,48.372C67.982,48.372 67.382,47.772 67.382,47.073C67.382,46.373 67.982,45.773 68.681,45.773ZM3.919,45.773C4.618,45.773 5.218,46.373 5.218,47.073C5.218,47.772 4.618,48.372 3.919,48.372C3.219,48.372 2.619,47.772 2.619,47.073C2.619,46.373 3.219,45.773 3.919,45.773ZM68.681,38.578C69.381,38.578 69.98,39.177 69.98,39.877C69.98,40.576 69.381,41.176 68.681,41.176C67.982,41.176 67.382,40.576 67.382,39.877C67.382,39.177 67.982,38.578 68.681,38.578ZM3.919,38.578C4.618,38.578 5.218,39.177 5.218,39.877C5.218,40.576 4.618,41.176 3.919,41.176C3.219,41.176 2.619,40.576 2.619,39.877C2.619,39.177 3.219,38.578 3.919,38.578ZM68.681,31.382C69.381,31.382 69.98,31.981 69.98,32.681C69.98,33.381 69.381,33.98 68.681,33.98C67.982,33.98 67.382,33.381 67.382,32.681C67.382,31.981 67.982,31.382 68.681,31.382ZM3.919,31.382C4.618,31.382 5.218,31.981 5.218,32.681C5.218,33.381 4.618,33.98 3.919,33.98C3.219,33.98 2.619,33.381 2.619,32.681C2.619,31.981 3.219,31.382 3.919,31.382ZM68.681,24.186C69.381,24.186 69.98,24.786 69.98,25.485C69.98,26.185 69.381,26.784 68.681,26.784C67.982,26.784 67.382,26.185 67.382,25.485C67.382,24.786 67.982,24.186 68.681,24.186ZM3.919,24.186C4.618,24.186 5.218,24.786 5.218,25.485C5.218,26.185 4.618,26.784 3.919,26.784C3.219,26.784 2.619,26.185 2.619,25.485C2.619,24.786 3.219,24.186 3.919,24.186ZM68.681,16.99C69.381,16.99 69.98,17.59 69.98,18.289C69.98,18.989 69.381,19.589 68.681,19.589C67.982,19.589 67.382,18.989 67.382,18.289C67.382,17.59 67.982,16.99 68.681,16.99ZM3.919,16.99C4.618,16.99 5.218,17.59 5.218,18.289C5.218,18.989 4.618,19.589 3.919,19.589C3.219,19.589 2.619,18.989 2.619,18.289C2.619,17.59 3.219,16.99 3.919,16.99ZM68.681,9.794C69.381,9.794 69.98,10.394 69.98,11.094C69.98,11.793 69.381,12.393 68.681,12.393C67.982,12.393 67.382,11.793 67.382,11.094C67.382,10.394 67.982,9.794 68.681,9.794ZM3.919,9.794C4.618,9.794 5.218,10.394 5.218,11.094C5.218,11.793 4.618,12.393 3.919,12.393C3.219,12.393 2.619,11.793 2.619,11.094C2.619,10.394 3.219,9.794 3.919,9.794ZM68.681,2.598C69.381,2.598 69.98,3.198 69.98,3.898C69.98,4.597 69.381,5.197 68.681,5.197C67.982,5.197 67.382,4.597 67.382,3.898C67.382,3.198 67.982,2.598 68.681,2.598ZM3.919,2.598C4.618,2.598 5.218,3.198 5.218,3.898C5.218,4.597 4.618,5.197 3.919,5.197C3.219,5.197 2.619,4.597 2.619,3.898C2.619,3.198 3.219,2.598 3.919,2.598Z"
       style="fill:rgb(13,76,117);"
       id="path2385" /><g
       transform="matrix(1,0,0,1,0.283336,0)"
       id="g2517"><g
         id="g2403"><g
           transform="matrix(1,0,0,1,36.5618,8.7899)"
           id="g2389"><path
             d="M2.319,1.198L1.719,0.599M1.719,0.6L0.621,0.6M0.621,0.6L0.021,1.198M0.021,1.198L0.021,1.698M0.621,2.298L0.021,1.698M0.621,2.298L1.719,2.298M1.719,2.298L2.319,2.897M2.319,2.896L2.319,3.496M2.319,3.496L1.719,4.096M1.719,4.096L0.621,4.096M0.621,4.096L0.021,3.496M3.517,0.6L3.517,4.096M3.517,2.298L4.117,1.698M4.117,1.698L5.315,1.698M5.315,1.698L5.815,2.298M5.815,2.298L5.815,4.096M7.013,1.698L7.513,1.698M7.513,1.698L7.513,4.096M7.013,4.096L8.111,4.096M7.513,0L7.513,0.6M11.109,4.096L9.909,4.096M9.909,4.096L9.31,3.496M9.311,3.496L9.311,2.298M9.311,2.298L9.91,1.698M9.909,1.698L11.108,1.698M11.109,1.698L11.608,2.298M11.607,2.298L11.607,2.897M11.607,2.896L9.311,2.896M12.807,0.6L13.406,0.6M13.405,0.6L13.405,4.096M12.807,4.096L14.005,4.096M17.401,0.6L17.401,4.096M17.401,4.096L15.703,4.096M15.103,3.496L15.703,4.096M15.103,3.496L15.103,2.298M15.103,2.298L15.703,1.698M15.703,1.698L17.401,1.698"
             style="fill:none;stroke:rgb(238,238,238);stroke-width:0.5px;"
             id="path2387" /></g><g
           transform="matrix(1,0,0,1,26.6735,14.5835)"
           id="g2393"><path
             d="M0.021,0L28.587,0"
             style="fill:none;stroke:rgb(238,238,238);stroke-width:0.5px;"
             id="path2391" /></g><g
           transform="matrix(1,0,0,1,33.9783,16.0817)"
           id="g2397"><path
             d="M5.784,3.058L4.927,3.058M4.927,3.058L4.498,2.629M4.498,2.629L4.498,1.845M4.498,1.845L4.927,1.416M4.927,1.416L5.784,1.416M5.784,1.416L6.14,1.845M6.14,1.845L6.14,2.202M6.14,2.202L4.498,2.202M7.068,3.058L7.068,0.56M7.068,0.56L7.853,1.416M7.853,1.416L8.71,0.56M8.71,0.56L8.71,3.058M9.995,3.058L10.781,3.058M10.781,3.058L11.21,2.629M11.209,2.629L11.209,1.845M11.209,1.845L10.78,1.416M10.781,1.416L9.995,1.416M9.995,1.416L9.566,1.845M9.566,1.845L9.566,2.63M9.566,2.629L9.995,3.058M12.065,3.058L13.35,3.058M13.35,3.058L13.707,2.629M13.707,2.629L13.35,2.201M13.35,2.202L12.494,2.202M12.494,2.202L12.065,1.845M12.065,1.845L12.494,1.416M12.494,1.416L13.707,1.416M14.636,3.058L14.636,2.629M14.636,2.629L14.992,2.629M14.992,2.629L14.992,3.058M14.992,3.058L14.636,3.058M17.491,1.416L16.278,1.416M16.278,1.416L15.849,1.845M15.849,1.845L15.849,2.63M15.849,2.629L16.278,3.058M16.278,3.058L17.491,3.058M20.061,1.416L18.776,1.416M18.776,1.416L18.419,1.845M18.419,1.845L18.419,2.63M18.776,3.058L18.419,2.629M18.776,3.058L20.061,3.058M0.507,0C-0.991,2.896 1.405,3.896 1.905,2.398C2.405,3.896 4.701,2.597 2.803,0"
             style="fill:none;stroke:rgb(238,238,238);stroke-width:0.4px;"
             id="path2395" /></g><g
           transform="matrix(1,0,0,1,67.7607,75.9559)"
           id="g2401"><circle
             cx="0.821"
             cy="0.8"
             r="1.599"
             style="fill:rgb(238,238,238);"
             id="circle2399" /></g></g><g
         id="g2487"><g
           transform="matrix(1,0,0,1,8.49507,0.299826)"
           id="g2435"><path
             d="M0.021,4.597L0.021,2.399M0.021,2.399L1.185,2.399M1.185,2.399L1.509,2.722M1.508,2.722L1.508,3.498M1.508,3.498L1.185,3.886M1.185,3.886L0.021,3.886M0.797,3.886L1.508,4.597M3.837,2.722L3.448,2.399M3.448,2.399L2.672,2.399M2.672,2.399L2.285,2.722M2.285,2.722L2.285,3.11M2.285,3.11L2.672,3.498M2.672,3.498L3.448,3.498M3.448,3.498L3.836,3.886M3.837,3.886L3.837,4.21M3.837,4.21L3.448,4.597M3.448,4.597L2.672,4.597M2.672,4.597L2.285,4.21M5.324,4.597L5.324,2.399M4.612,2.399L6.099,2.399"
             style="fill:none;stroke:rgb(238,238,238);stroke-width:0.4px;"
             id="path2405" /><g
             transform="matrix(1,0,0,1,0,7.19583)"
             id="g2409"><path
               d="M0.021,4.597L0.021,3.11M0.021,3.11L0.797,2.399M0.797,2.399L1.572,3.11M1.573,3.11L1.573,4.597M0.021,3.498L1.573,3.498M2.349,4.21L2.349,2.722M2.349,2.722L2.737,2.399M2.737,2.399L3.449,2.399M3.448,2.399L3.836,2.722M3.837,2.722L3.837,4.21M3.837,4.21L3.448,4.597M3.448,4.597L2.737,4.597M2.737,4.597L2.349,4.21M2.349,4.21L3.836,2.722"
               style="fill:none;stroke:rgb(238,238,238);stroke-width:0.4px;"
               id="path2407" /></g><g
             transform="matrix(1,0,0,1,0,14.3917)"
             id="g2413"><path
               d="M0.021,2.399L0.021,4.597M0.021,4.597L1.185,4.597M1.185,4.597L1.573,4.21M1.573,4.21L1.573,2.722M1.573,2.722L1.185,2.399M1.185,2.399L0.021,2.399M2.349,4.21L2.349,2.722M2.349,2.722L2.737,2.399M2.737,2.399L3.449,2.399M3.448,2.399L3.836,2.722M3.837,2.722L3.837,4.21M3.837,4.21L3.448,4.597M3.448,4.597L2.737,4.597M2.737,4.597L2.349,4.21M2.349,4.21L3.836,2.722"
               style="fill:none;stroke:rgb(238,238,238);stroke-width:0.4px;"
               id="path2411" /></g><g
             transform="matrix(1,0,0,1,0,21.5875)"
             id="g2417"><path
               d="M0.021,2.399L0.021,4.597M0.021,4.597L1.185,4.597M1.185,4.597L1.573,4.21M1.573,4.21L1.573,2.722M1.573,2.722L1.185,2.399M1.185,2.399L0.021,2.399M3.837,2.399L2.349,2.399M2.349,2.399L2.349,3.498M2.349,3.498L3.06,3.11M3.06,3.11L3.448,3.11M3.448,3.11L3.837,3.498M3.837,3.498L3.837,4.21M3.837,4.21L3.448,4.597M3.448,4.597L2.672,4.597M2.672,4.597L2.349,4.21"
               style="fill:none;stroke:rgb(238,238,238);stroke-width:0.4px;"
               id="path2415" /></g><g
             transform="matrix(1,0,0,1,0,28.7833)"
             id="g2421"><path
               d="M0.021,2.399L0.021,4.597M0.021,4.597L1.185,4.597M1.185,4.597L1.573,4.21M1.573,4.21L1.573,2.722M1.573,2.722L1.185,2.399M1.185,2.399L0.021,2.399M3.837,2.399L3.06,2.722M3.06,2.722L2.349,3.498M2.349,3.498L2.349,4.21M2.672,4.597L2.349,4.21M2.672,4.597L3.448,4.597M3.448,4.597L3.836,4.21M3.837,4.21L3.837,3.886M3.837,3.886L3.448,3.498M3.448,3.498L2.349,3.498"
               style="fill:none;stroke:rgb(238,238,238);stroke-width:0.4px;"
               id="path2419" /></g><g
             transform="matrix(1,0,0,1,0,35.9791)"
             id="g2425"><path
               d="M0.021,2.399L0.021,4.597M0.021,4.597L1.185,4.597M1.185,4.597L1.573,4.21M1.573,4.21L1.573,2.722M1.573,2.722L1.185,2.399M1.185,2.399L0.021,2.399M2.349,2.399L3.836,2.399M3.837,2.399L3.837,2.722M3.837,2.722L2.349,4.21M2.349,4.21L2.349,4.597"
               style="fill:none;stroke:rgb(238,238,238);stroke-width:0.4px;"
               id="path2423" /></g><g
             transform="matrix(1,0,0,1,0,43.175)"
             id="g2429"><path
               d="M0.021,2.399L0.021,4.597M0.021,4.597L1.185,4.597M1.185,4.597L1.509,4.21M1.508,4.21L1.508,2.722M1.508,2.722L1.185,2.399M1.185,2.399L0.021,2.399M2.349,2.722L2.672,2.399M2.672,2.399L3.448,2.399M3.448,2.399L3.836,2.722M3.837,2.722L3.837,3.11M3.837,3.11L3.448,3.498M3.448,3.498L3.836,3.886M3.837,3.886L3.837,4.21M3.837,4.21L3.448,4.597M3.448,4.597L2.672,4.597M2.672,4.597L2.349,4.21M2.349,4.21L2.349,3.886M2.349,3.886L2.672,3.498M2.672,3.498L2.349,3.11M2.349,3.11L2.349,2.722M2.672,3.498L3.448,3.498"
               style="fill:none;stroke:rgb(238,238,238);stroke-width:0.4px;"
               id="path2427" /></g><g
             transform="matrix(1,0,0,1,0,50.3708)"
             id="g2433"><path
               d="M0.021,2.722L0.409,2.399M0.409,2.399L1.184,2.399M1.185,2.399L1.509,2.722M1.508,2.722L1.508,3.11M1.508,3.11L1.185,3.498M1.185,3.498L0.797,3.498M1.185,3.498L1.509,3.886M1.508,3.886L1.508,4.21M1.508,4.21L1.185,4.597M1.185,4.597L0.409,4.597M0.409,4.597L0.021,4.21M2.349,2.399L2.349,3.886M2.349,3.886L3.06,4.597M3.06,4.597L3.836,3.886M3.837,3.886L3.837,2.399M4.612,2.722L5,2.399M5,2.399L5.712,2.399M5.712,2.399L6.099,2.722M6.099,2.722L6.099,3.11M6.099,3.11L5.712,3.498M5.712,3.498L5.389,3.498M5.712,3.498L6.099,3.886M6.099,3.886L6.099,4.21M6.099,4.21L5.712,4.597M5.712,4.597L5,4.597M4.612,4.21L5,4.597"
               style="fill:none;stroke:rgb(238,238,238);stroke-width:0.4px;"
               id="path2431" /></g></g><g
           transform="matrix(1,0,0,1,56.6671,0.299826)"
           id="g2485"><g
             transform="matrix(1,0,0,1,0.491286,1.39226)"
             id="g2449"><g
               transform="matrix(1,0,0,1,1.28424,60.0051)"
               id="g2439"><path
                 d="M5.53,3.11L6.241,2.399M6.241,2.399L6.241,4.597M5.53,4.597L7.017,4.597"
                 style="fill:none;stroke:white;stroke-width:0.4px;"
                 id="path2437" /></g><g
               transform="matrix(1,0,0,1,3.37462,60.019)"
               id="g2443"><path
                 d="M7.017,4.597L5.53,4.597M5.53,4.597L7.017,3.11M7.017,3.11L7.017,2.722M7.017,2.722L6.629,2.399M6.629,2.399L5.918,2.399M5.918,2.399L5.53,2.722"
                 style="fill:none;stroke:white;stroke-width:0.4px;"
                 id="path2441" /></g><g
               transform="matrix(1,0,0,1,5.53544,60.0751)"
               id="g2447"><path
                 d="M5.53,2.399L5.53,3.886M5.53,3.886L6.241,4.597M6.241,4.597L7.017,3.886M7.017,3.886L7.017,2.399"
                 style="fill:none;stroke:white;stroke-width:0.4px;"
                 id="path2445" /></g></g><path
             d="M3.978,4.597L3.978,2.399M3.266,2.399L4.753,2.399M7.017,4.597L5.53,2.399M7.017,2.399L5.53,4.597"
             style="fill:none;stroke:rgb(238,238,238);stroke-width:0.4px;"
             id="path2451" /><g
             transform="matrix(1,0,0,1,0,7.19583)"
             id="g2455"><path
               d="M3.266,4.597L3.266,2.399M3.266,2.399L4.365,2.399M4.365,2.399L4.753,2.722M4.753,2.722L4.753,3.498M4.753,3.498L4.365,3.886M4.365,3.886L3.266,3.886M3.978,3.886L4.753,4.597M7.017,4.597L5.53,2.399M7.017,2.399L5.53,4.597"
               style="fill:none;stroke:rgb(238,238,238);stroke-width:0.4px;"
               id="path2453" /></g><g
             transform="matrix(1,0,0,1,0,14.3917)"
             id="g2459"><path
               d="M3.266,2.399L3.266,4.597M3.266,4.597L4.365,4.597M4.365,4.597L4.753,4.21M4.753,4.21L4.753,2.722M4.753,2.722L4.365,2.399M4.365,2.399L3.266,2.399M5.53,3.11L6.241,2.399M6.241,2.399L6.241,4.597M5.53,4.597L7.017,4.597"
               style="fill:none;stroke:rgb(238,238,238);stroke-width:0.4px;"
               id="path2457" /></g><g
             transform="matrix(1,0,0,1,0,21.5875)"
             id="g2463"><path
               d="M3.266,2.399L3.266,4.597M3.266,4.597L4.365,4.597M4.365,4.597L4.753,4.21M4.753,4.21L4.753,2.722M4.753,2.722L4.365,2.399M4.365,2.399L3.266,2.399M7.017,4.597L5.53,4.597M5.53,4.597L7.017,3.11M7.017,3.11L7.017,2.722M7.017,2.722L6.629,2.399M6.629,2.399L5.918,2.399M5.918,2.399L5.53,2.722"
               style="fill:none;stroke:rgb(238,238,238);stroke-width:0.4px;"
               id="path2461" /></g><g
             transform="matrix(1,0,0,1,0,28.7833)"
             id="g2467"><path
               d="M3.201,2.399L3.201,4.597M3.201,4.597L4.365,4.597M4.365,4.597L4.753,4.21M4.753,4.21L4.753,2.722M4.753,2.722L4.365,2.399M4.365,2.399L3.201,2.399M5.53,2.722L5.918,2.399M5.918,2.399L6.629,2.399M6.629,2.399L7.017,2.722M7.017,2.722L7.017,3.11M7.017,3.11L6.629,3.498M6.629,3.498L6.241,3.498M6.629,3.498L7.017,3.886M7.017,3.886L7.017,4.21M7.017,4.21L6.629,4.597M6.629,4.597L5.918,4.597M5.918,4.597L5.53,4.21"
               style="fill:none;stroke:rgb(238,238,238);stroke-width:0.4px;"
               id="path2465" /></g><g
             transform="matrix(1,0,0,1,0,35.9791)"
             id="g2471"><path
               d="M3.201,2.399L3.201,4.597M3.201,4.597L4.365,4.597M4.365,4.597L4.753,4.21M4.753,4.21L4.753,2.722M4.753,2.722L4.365,2.399M4.365,2.399L3.201,2.399M6.629,4.597L6.629,2.399M6.629,2.399L5.53,3.498M5.53,3.498L7.017,3.498"
               style="fill:none;stroke:rgb(238,238,238);stroke-width:0.4px;"
               id="path2469" /></g><g
             transform="matrix(1,0,0,1,0,43.175)"
             id="g2475"><path
               d="M2.038,2.399L2.426,2.722M2.038,2.399L1.326,2.399M0.938,2.722L1.326,2.399M0.938,2.722L0.938,4.21M1.326,4.597L0.938,4.21M1.326,4.597L2.038,4.597M2.038,4.597L2.426,4.21M2.426,4.21L2.426,3.498M2.426,3.498L1.714,3.498M3.201,4.597L3.201,2.399M3.201,2.399L4.753,4.597M4.753,4.597L4.753,2.399M5.53,2.399L5.53,4.597M5.53,4.597L6.629,4.597M6.629,4.597L7.017,4.21M7.017,4.21L7.017,2.722M7.017,2.722L6.629,2.399M6.629,2.399L5.53,2.399"
               style="fill:none;stroke:rgb(238,238,238);stroke-width:0.4px;"
               id="path2473" /></g><g
             transform="matrix(1,0,0,1,-4.03448,61.5532)"
             id="g2479"><path
               d="M2.038,2.399L2.426,2.722M2.038,2.399L1.326,2.399M0.938,2.722L1.326,2.399M0.938,2.722L0.938,4.21M1.326,4.597L0.938,4.21M1.326,4.597L2.038,4.597M2.038,4.597L2.426,4.21M2.426,4.21L2.426,3.498M2.426,3.498L1.714,3.498M3.201,4.597L3.201,2.399M3.201,2.399L4.753,4.597M4.753,4.597L4.753,2.399M5.53,2.399L5.53,4.597M5.53,4.597L6.629,4.597M6.629,4.597L7.017,4.21M7.017,4.21L7.017,2.722M7.017,2.722L6.629,2.399M6.629,2.399L5.53,2.399"
               style="fill:none;stroke:rgb(238,238,238);stroke-width:0.4px;"
               id="path2477" /></g><g
             transform="matrix(1,0,0,1,0,50.3708)"
             id="g2483"><path
               d="M4.753,2.399L3.201,2.399M3.201,2.399L3.201,3.498M3.201,3.498L3.977,3.11M3.978,3.11L4.365,3.11M4.365,3.11L4.753,3.498M4.753,3.498L4.753,4.21M4.753,4.21L4.365,4.597M4.365,4.597L3.59,4.597M3.59,4.597L3.201,4.21M5.53,2.399L5.53,3.886M5.53,3.886L6.241,4.597M6.241,4.597L7.017,3.886M7.017,3.886L7.017,2.399"
               style="fill:none;stroke:rgb(238,238,238);stroke-width:0.4px;"
               id="path2481" /></g></g></g><g
         id="g2515"><g
           transform="matrix(1,0,0,1,0,0.321813)"
           id="g2497"><circle
             id="connector0pin"
             cx="3.619"
             cy="3.598"
             r="2.049"
             style="fill:none;stroke:rgb(154,145,108);stroke-width:1.5px;stroke-linecap:butt;stroke-linejoin:miter;stroke-miterlimit:4;" /><circle
             id="connector1pin"
             cx="3.619"
             cy="10.794"
             r="2.049"
             style="fill:none;stroke:rgb(154,145,108);stroke-width:1.5px;stroke-linecap:butt;stroke-linejoin:miter;stroke-miterlimit:4;" /><circle
             id="connector2pin"
             cx="3.619"
             cy="17.99"
             r="2.049"
             style="fill:none;stroke:rgb(154,145,108);stroke-width:1.5px;stroke-linecap:butt;stroke-linejoin:miter;stroke-miterlimit:4;" /><circle
             id="connector3pin"
             cx="3.619"
             cy="25.185"
             r="2.049"
             style="fill:none;stroke:rgb(154,145,108);stroke-width:1.5px;stroke-linecap:butt;stroke-linejoin:miter;stroke-miterlimit:4;" /><circle
             id="connector4pin"
             cx="3.619"
             cy="32.381"
             r="2.049"
             style="fill:none;stroke:rgb(154,145,108);stroke-width:1.5px;stroke-linecap:butt;stroke-linejoin:miter;stroke-miterlimit:4;" /><circle
             id="connector5pin"
             cx="3.619"
             cy="39.577"
             r="2.049"
             style="fill:none;stroke:rgb(154,145,108);stroke-width:1.5px;stroke-linecap:butt;stroke-linejoin:miter;stroke-miterlimit:4;" /><circle
             id="connector6pin"
             cx="3.619"
             cy="46.773"
             r="2.049"
             style="fill:none;stroke:rgb(154,145,108);stroke-width:1.5px;stroke-linecap:butt;stroke-linejoin:miter;stroke-miterlimit:4;" /><circle
             id="connector7pin"
             cx="3.619"
             cy="53.969"
             r="2.049"
             style="fill:none;stroke:rgb(154,145,108);stroke-width:1.5px;stroke-linecap:butt;stroke-linejoin:miter;stroke-miterlimit:4;" /></g><g
           transform="matrix(1,0,0,1,64.7624,0.321813)"
           id="g2513"><circle
             id="connector8pin"
             cx="3.619"
             cy="53.969"
             r="2.049"
             style="fill:none;stroke:rgb(154,145,108);stroke-width:1.5px;stroke-linecap:butt;stroke-linejoin:miter;stroke-miterlimit:4;" /><g
             id="connector17pin"
             serif:id="connector8pin"
             transform="matrix(1,0,0,1,-11.7576,15.4279)"><circle
               cx="3.619"
               cy="53.969"
               r="2.049"
               style="fill:none;stroke:rgb(154,145,108);stroke-width:1.5px;stroke-linecap:butt;stroke-linejoin:miter;stroke-miterlimit:4;"
               id="circle2500" /></g><g
             id="connector18pin"
             serif:id="connector8pin"
             transform="matrix(1,0,0,1,-1.72797,15.4279)"><circle
               cx="3.619"
               cy="53.969"
               r="2.049"
               style="fill:none;stroke:rgb(154,145,108);stroke-width:1.5px;stroke-linecap:butt;stroke-linejoin:miter;stroke-miterlimit:4;"
               id="circle2503" /></g><circle
             id="connector9pin"
             cx="3.619"
             cy="46.773"
             r="2.049"
             style="fill:none;stroke:rgb(154,145,108);stroke-width:1.5px;stroke-linecap:butt;stroke-linejoin:miter;stroke-miterlimit:4;" /><circle
             id="connector10pin"
             cx="3.619"
             cy="39.577"
             r="2.049"
             style="fill:none;stroke:rgb(154,145,108);stroke-width:1.5px;stroke-linecap:butt;stroke-linejoin:miter;stroke-miterlimit:4;" /><circle
             id="connector11pin"
             cx="3.619"
             cy="32.381"
             r="2.049"
             style="fill:none;stroke:rgb(154,145,108);stroke-width:1.5px;stroke-linecap:butt;stroke-linejoin:miter;stroke-miterlimit:4;" /><circle
             id="connector12pin"
             cx="3.619"
             cy="25.185"
             r="2.049"
             style="fill:none;stroke:rgb(154,145,108);stroke-width:1.5px;stroke-linecap:butt;stroke-linejoin:miter;stroke-miterlimit:4;" /><circle
             id="connector13pin"
             cx="3.619"
             cy="17.99"
             r="2.049"
             style="fill:none;stroke:rgb(154,145,108);stroke-width:1.5px;stroke-linecap:butt;stroke-linejoin:miter;stroke-miterlimit:4;" /><circle
             id="connector14pin"
             cx="3.619"
             cy="10.794"
             r="2.049"
             style="fill:none;stroke:rgb(154,145,108);stroke-width:1.5px;stroke-linecap:butt;stroke-linejoin:miter;stroke-miterlimit:4;" /><circle
             id="connector15pin"
             cx="3.619"
             cy="3.598"
             r="2.049"
             style="fill:none;stroke:rgb(154,145,108);stroke-width:1.5px;stroke-linecap:butt;stroke-linejoin:miter;stroke-miterlimit:4;" /></g></g></g><g
       transform="matrix(1,0,0,1,-9.6507,2.59737)"
       id="g2533"><path
         d="M26.733,3.984L26.397,3.984C26.215,3.984 26.047,4.082 26.047,4.334C26.047,4.586 26.215,4.684 26.397,4.684L27.559,4.684C28.105,4.684 28.42,4.523 28.665,4.026L29.302,2.752C29.428,2.5 29.505,2.262 29.505,1.982C29.505,1.66 29.435,1.457 29.295,1.17L28.679,-0.062C28.441,-0.538 28.168,-0.762 27.622,-0.762L26.453,-0.762C26.236,-0.762 26.047,-0.664 26.047,-0.412C26.047,-0.146 26.243,-0.062 26.474,-0.062L26.733,-0.062L26.733,3.984ZM27.433,-0.062L27.517,-0.062C27.839,-0.062 27.902,-0.069 28.049,0.232L28.63,1.415C28.728,1.618 28.805,1.751 28.805,1.989C28.805,2.164 28.749,2.283 28.672,2.444L28.056,3.69C27.93,3.949 27.86,3.984 27.566,3.984L27.433,3.984L27.433,-0.062Z"
         style="fill:white;fill-rule:nonzero;"
         id="path2519" /><path
         d="M34.195,4.684C34.356,4.684 34.545,4.586 34.545,4.334C34.545,4.068 34.349,3.984 34.195,3.984L33.054,3.984C32.739,3.984 32.669,3.963 32.529,3.676L31.934,2.465C31.85,2.297 31.787,2.178 31.787,1.982C31.787,1.765 31.843,1.639 31.934,1.45L32.543,0.232C32.676,-0.034 32.725,-0.062 33.026,-0.062L34.195,-0.062C34.356,-0.062 34.545,-0.16 34.545,-0.412C34.545,-0.678 34.349,-0.762 34.195,-0.762L33.005,-0.762C32.466,-0.762 32.165,-0.573 31.927,-0.09L31.283,1.205C31.143,1.485 31.087,1.674 31.087,1.982C31.087,2.255 31.157,2.479 31.276,2.717L31.92,4.019C32.144,4.474 32.445,4.684 32.97,4.684L34.195,4.684Z"
         style="fill:white;fill-rule:nonzero;"
         id="path2521" /><path
         d="M41.867,2.626L43.4,2.626C43.778,2.626 44.065,2.598 44.338,2.29C44.597,2.003 44.625,1.751 44.625,1.394L44.625,0.442C44.625,0.064 44.597,-0.195 44.296,-0.475C44.044,-0.713 43.813,-0.762 43.491,-0.762L41.167,-0.762L41.167,4.334C41.167,4.558 41.265,4.684 41.517,4.684C41.769,4.684 41.867,4.558 41.867,4.334L41.867,2.626ZM41.867,-0.062L43.421,-0.062C43.834,-0.062 43.925,0.043 43.925,0.442L43.925,1.422C43.925,1.821 43.834,1.926 43.421,1.926L41.867,1.926L41.867,-0.062Z"
         style="fill:white;fill-rule:nonzero;"
         id="path2523" /><path
         d="M46.291,3.431C46.291,3.872 46.403,4.04 46.753,4.334C47.103,4.628 47.243,4.684 47.67,4.684L48.202,4.684C48.629,4.684 48.769,4.628 49.119,4.334C49.469,4.04 49.581,3.872 49.581,3.431L49.581,2.164C49.581,1.716 49.49,1.562 49.154,1.289C48.825,1.016 48.671,0.911 48.202,0.911L47.67,0.911C47.201,0.911 47.047,1.016 46.718,1.289C46.382,1.562 46.291,1.716 46.291,2.164L46.291,3.431ZM46.963,2.164C46.963,2.024 47.012,1.933 47.208,1.765C47.355,1.639 47.46,1.583 47.67,1.583L48.202,1.583C48.412,1.583 48.517,1.639 48.664,1.765C48.86,1.933 48.909,2.024 48.909,2.164L48.909,3.431C48.909,3.571 48.86,3.662 48.664,3.83C48.517,3.956 48.412,4.012 48.202,4.012L47.67,4.012C47.46,4.012 47.355,3.956 47.208,3.83C47.012,3.662 46.963,3.571 46.963,3.431L46.963,2.164Z"
         style="fill:white;fill-rule:nonzero;"
         id="path2525" /><path
         d="M53.312,2.514C53.312,2.283 53.263,2.045 52.976,2.045C52.689,2.045 52.64,2.283 52.64,2.514L52.64,3.13L52.276,3.753L52.066,3.13L51.996,1.394C51.989,1.163 51.947,0.911 51.66,0.911C51.366,0.911 51.324,1.163 51.331,1.394L51.401,3.263L51.73,4.257C51.8,4.46 51.835,4.684 52.073,4.684L52.332,4.684C52.451,4.684 52.549,4.558 52.612,4.467L52.976,3.921L53.34,4.467C53.403,4.558 53.501,4.684 53.62,4.684L53.879,4.684C54.117,4.684 54.152,4.46 54.222,4.257L54.551,3.263L54.621,1.394C54.628,1.163 54.586,0.911 54.292,0.911C54.005,0.911 53.963,1.163 53.956,1.394L53.886,3.13L53.676,3.753L53.312,3.13L53.312,2.514Z"
         style="fill:white;fill-rule:nonzero;"
         id="path2527" /><path
         d="M59.199,4.684C59.395,4.684 59.661,4.642 59.661,4.348C59.661,4.061 59.423,4.012 59.199,4.012L57.757,4.012C57.533,4.012 57.4,3.984 57.309,3.886L57.141,3.704C57.092,3.655 57.043,3.571 57.043,3.508L57.043,3.284L59.199,3.284C59.598,3.284 59.661,3.172 59.661,2.787L59.661,2.248C59.661,1.877 59.619,1.618 59.311,1.373L59.038,1.156C58.779,0.946 58.625,0.911 58.296,0.911L57.68,0.911C57.407,0.911 57.253,0.918 56.938,1.191L56.7,1.394C56.42,1.632 56.371,1.842 56.371,2.199L56.371,3.494C56.371,3.858 56.448,4.012 56.714,4.25L57.001,4.502C57.211,4.684 57.323,4.684 57.603,4.684L59.199,4.684ZM57.043,2.136C57.043,1.94 57.099,1.891 57.183,1.828L57.414,1.66C57.526,1.583 57.631,1.583 57.757,1.583L58.324,1.583C58.429,1.583 58.562,1.59 58.646,1.667L58.905,1.891C58.996,1.975 58.989,2.08 58.989,2.206L58.989,2.612L57.043,2.612L57.043,2.136Z"
         style="fill:white;fill-rule:nonzero;"
         id="path2529" /><path
         d="M61.411,4.222C61.411,4.453 61.46,4.684 61.747,4.684C62.034,4.684 62.083,4.453 62.083,4.222L62.083,2.521L63.021,1.744C63.14,1.646 63.231,1.583 63.357,1.583L63.553,1.583C63.714,1.583 63.875,1.583 63.959,1.702C64.029,1.8 64.029,1.884 64.029,1.996C64.029,2.213 64.127,2.409 64.372,2.409C64.659,2.409 64.701,2.171 64.701,1.94C64.701,1.632 64.624,1.401 64.4,1.177C64.218,0.995 64.001,0.911 63.742,0.911L63.203,0.911C62.993,0.911 62.797,1.044 62.608,1.198L62.083,1.632L62.083,1.359C62.083,1.135 62.013,0.911 61.747,0.911C61.439,0.911 61.411,1.163 61.411,1.408L61.411,4.222Z"
         style="fill:white;fill-rule:nonzero;"
         id="path2531" /></g></g></svg>